<svg width="129" height="95" viewBox="0 0 129 95" fill="none" xmlns="http://www.w3.org/2000/svg">
<ellipse cx="64.5" cy="74" rx="64.5" ry="21" fill="white"/>
<ellipse cx="64" cy="71" rx="54" ry="18" fill="#332214"/>
<rect x="10" y="18" width="108" height="53" fill="#332214"/>
<path d="M64 73.5C78.937 73.5 92.475 72.155 102.292 69.9734C107.197 68.8835 111.2 67.579 113.989 66.1136C115.383 65.3811 116.498 64.596 117.271 63.7571C118.046 62.9155 118.5 61.9914 118.5 61C118.5 60.0086 118.046 59.0845 117.271 58.2429C116.498 57.404 115.383 56.6189 113.989 55.8864C111.2 54.421 107.197 53.1165 102.292 52.0266C92.475 49.845 78.937 48.5 64 48.5C49.063 48.5 35.525 49.845 25.7078 52.0266C20.8032 53.1165 16.8002 54.421 14.011 55.8864C12.617 56.6189 11.5017 57.404 10.7293 58.2429C9.95433 59.0845 9.5 60.0086 9.5 61C9.5 61.9914 9.95433 62.9155 10.7293 63.7571C11.5017 64.596 12.617 65.3811 14.011 66.1136C16.8002 67.579 20.8032 68.8835 25.7078 69.9734C35.525 72.155 49.063 73.5 64 73.5Z" fill="#332214" stroke="white" stroke-linejoin="round"/>
<rect x="10" y="47" width="108" height="14" fill="#332214"/>
<path d="M64 55.5C78.937 55.5 92.475 54.155 102.292 51.9734C107.197 50.8835 111.2 49.579 113.989 48.1136C115.383 47.3811 116.498 46.596 117.271 45.7571C118.046 44.9155 118.5 43.9914 118.5 43C118.5 42.0086 118.046 41.0845 117.271 40.2429C116.498 39.404 115.383 38.6189 113.989 37.8864C111.2 36.421 107.197 35.1165 102.292 34.0266C92.475 31.845 78.937 30.5 64 30.5C49.063 30.5 35.525 31.845 25.7078 34.0266C20.8032 35.1165 16.8002 36.421 14.011 37.8864C12.617 38.6189 11.5017 39.404 10.7293 40.2429C9.95433 41.0845 9.5 42.0086 9.5 43C9.5 43.9914 9.95433 44.9155 10.7293 45.7571C11.5017 46.596 12.617 47.3811 14.011 48.1136C16.8002 49.579 20.8032 50.8835 25.7078 51.9734C35.525 54.155 49.063 55.5 64 55.5Z" fill="#332214" stroke="white" stroke-linejoin="round"/>
<rect x="10" y="22" width="108" height="21" fill="#332214"/>
<rect x="10" y="18" width="108" height="14" fill="#FFBAF4"/>
<ellipse cx="12" cy="32" rx="2" ry="5" fill="#FFBAF4"/>
<ellipse cx="17.5" cy="32" rx="3.5" ry="4" fill="#332214"/>
<path d="M32 32C32 33.036 31.8193 34.059 31.471 34.9953C31.1227 35.9316 30.6155 36.7579 29.9859 37.4145C29.3563 38.0711 28.62 38.5416 27.8302 38.7922C27.0404 39.0427 26.2168 39.0671 25.4187 38.8634C24.6206 38.6597 23.868 38.2331 23.2151 37.6144C22.5623 36.9957 22.0255 36.2002 21.6434 35.2855C21.2614 34.3707 21.0437 33.3594 21.0059 32.3246C20.9682 31.2898 21.1114 30.2572 21.4252 29.3013L26.5 32H32Z" fill="#FFBAF4"/>
<ellipse cx="64" cy="18" rx="54" ry="18" fill="#FFBAF4"/>
<path d="M31.2754 33.5508C31.7987 32.4283 32.2819 32.0742 33.6701 32.3534" stroke="#FFBAF4"/>
<ellipse cx="48.5" cy="32" rx="8.5" ry="10" fill="#FFBAF4"/>
<path d="M37.195 32.7068C39.3435 33.1766 40.4358 33.9374 42 37" stroke="#FFBAF4"/>
<path d="M54.5363 37.8939C55.9262 35.5042 56.9743 34.7463 59.5363 34.8939" stroke="#FFBAF4"/>
<path d="M67 32.5C67 59 74.5 58 73 32.5" stroke="#FFBAF4"/>
<path d="M69.9774 31.992C69.9774 37.283 70.183 42.5306 70.183 47.8209" stroke="#FFBAF4" stroke-width="3" stroke-linecap="round"/>
<path d="M70.4771 43.659C70.3552 43.6742 70.3701 44.7547 70.3481 44.9003C70.3003 45.217 70.317 45.5408 70.317 45.8612C70.317 46.3569 70.2369 46.8584 70.2369 47.3516C70.2369 47.6897 70.2397 47.9783 70.3259 48.3037C70.3852 48.5281 70.397 48.7082 70.397 48.9444C70.397 49.3044 70.397 49.7106 70.397 50.0655" stroke="#FFBAF4" stroke-width="3" stroke-linecap="round"/>
<path d="M70.6773 49.8653C70.9214 49.5907 70.7974 48.9786 70.7974 48.6241" stroke="#FFBAF4" stroke-width="3" stroke-linecap="round"/>
<path d="M70.7974 48.3838C70.669 48.0948 70.7574 47.6181 70.7574 47.3027C70.7574 47.0017 70.7974 46.6905 70.7974 46.4018C70.7974 46.2688 70.8775 46.1483 70.8775 46.0014C70.8775 45.8451 70.9349 45.5931 70.9799 45.4453C71.0562 45.1944 71.1178 44.8782 71.1178 44.62C71.1178 44.0532 71.1979 43.5225 71.1979 42.9583C71.1979 42.6608 71.2779 42.4011 71.2779 42.1174C71.2779 41.9862 71.358 41.8866 71.358 41.7571C71.358 41.6083 71.3516 41.476 71.3981 41.3366" stroke="#FFBAF4" stroke-width="3" stroke-linecap="round"/>
<path d="M71.5182 41.4167C71.5297 41.3132 71.5983 41.259 71.5983 41.1364C71.5983 41.0297 71.5983 40.9229 71.5983 40.8161C71.5983 40.6384 71.6029 40.4847 71.6405 40.3156C71.7073 40.0149 71.5882 39.5849 71.7384 39.3146C71.7795 39.2405 71.7461 39.1522 71.7606 39.0721C71.7839 38.944 71.8281 38.8444 71.8407 38.7118C71.8648 38.4585 71.9856 38.2335 71.9987 37.9732C72.009 37.766 72.0787 37.57 72.0787 37.3526C72.0787 37.1713 72.0387 36.9997 72.0387 36.812" stroke="#FFBAF4" stroke-width="3" stroke-linecap="round"/>
<path d="M67.5942 34.5698C67.648 34.5698 67.6707 34.588 67.7143 34.6098" stroke="#FFBAF4" stroke-width="3" stroke-linecap="round"/>
<path d="M68.5151 34.4496C68.8157 34.4496 68.7153 35.5655 68.7153 35.831C68.7153 36.2848 68.7153 36.7386 68.7153 37.1924C68.7153 38.2389 68.7554 39.2974 68.7554 40.3356C68.7554 40.8644 68.7954 41.3835 68.7954 41.9172C68.7954 42.1099 68.8755 42.3071 68.8755 42.5178C68.8755 42.7391 68.8749 42.9495 68.9133 43.1607C68.9975 43.6239 68.9155 44.1865 68.9155 44.66C68.9155 45.1405 68.9155 45.621 68.9155 46.1015" stroke="#FFBAF4" stroke-width="3" stroke-linecap="round"/>
<path d="M62 35.5C65.5 35.5 67 35 67.5 39.5" stroke="#FFBAF4"/>
<path d="M86.2376 33.802C79.8513 34.1024 73.9835 36.8832 73.0145 43.817" stroke="#FFBAF4"/>
<path d="M75.0784 34.588C75.0747 34.5581 74.2818 34.8398 74.1462 34.9076C73.9766 34.9924 73.802 35.0703 73.6353 35.16C73.5749 35.1924 73.4481 35.2244 73.4287 35.2923C73.4225 35.3138 73.3533 35.3982 73.3361 35.4215C73.2653 35.5176 73.1974 35.6636 73.1091 35.7421C73.0738 35.7736 73.0466 35.8391 73.0226 35.8805C73.0019 35.9163 72.9978 35.9693 72.9717 35.9986C72.919 36.0579 72.9004 36.131 72.8659 36.2001C72.8336 36.2646 72.7817 36.3615 72.7692 36.4301C72.7501 36.5354 72.6397 36.6265 72.6247 36.7313C72.6088 36.8428 72.5138 36.9423 72.5138 37.0611" stroke="#FFBAF4" stroke-width="3" stroke-linecap="round"/>
<path d="M73.9976 34.3315C74.079 34.3417 73.8724 34.7632 73.851 34.8078C73.7802 34.956 73.674 35.0834 73.5986 35.2292C73.546 35.331 73.5183 35.434 73.4755 35.5386C73.4436 35.6166 73.4266 35.7035 73.389 35.7787C73.3586 35.8396 73.318 35.9142 73.3015 35.9803" stroke="#FFBAF4" stroke-width="3" stroke-linecap="round"/>
<path d="M77.958 32.9302C77.958 33.0553 77.8292 33.17 77.7607 33.2646C77.471 33.6641 77.0785 33.9892 76.7022 34.3047C76.2616 34.6741 75.7998 35.0162 75.3595 35.3849C75.0118 35.676 74.6769 35.9881 74.2993 36.241C74.1382 36.3489 73.9503 36.4178 73.7927 36.527C73.7261 36.5731 73.6961 36.6545 73.6104 36.7059C73.1317 36.9931 72.651 37.3291 72.3613 37.8178C72.2076 38.0772 72.1863 38.3507 72.0821 38.6255C72.0398 38.7371 71.7155 39.1926 71.8781 39.3044C72.001 39.3889 71.9985 39.6089 71.9985 39.7625C71.9985 39.8499 72.0769 39.8553 72.1339 39.8996C72.1712 39.9287 72.2081 40.0568 72.2259 40.0618C72.3083 40.0854 72.6827 39.637 72.7275 39.5753C72.9158 39.3159 73.1973 39.0016 73.2944 38.694C73.358 38.4926 73.6541 38.2929 73.7877 38.1305C73.9888 37.8859 74.2107 37.6499 74.4365 37.4282C74.816 37.0556 75.2466 36.7437 75.6421 36.3898C76.014 36.057 76.4364 35.8108 76.846 35.5337C77.1583 35.3225 77.5041 35.1222 77.861 35.0003C78.0781 34.9262 78.2928 34.8356 78.5064 34.7528C78.61 34.7127 78.7169 34.6458 78.8308 34.6458" stroke="#FFBAF4" stroke-width="3" stroke-linecap="round"/>
<rect x="73" y="32" width="42" height="6" fill="#FFBAF4"/>
<ellipse cx="82.5" cy="40.5" rx="7.5" ry="4.5" fill="#332214"/>
<ellipse cx="104.5" cy="38" rx="9.5" ry="6" fill="#332214"/>
<ellipse cx="92" cy="38" rx="3" ry="6" fill="#FFBAF4"/>
<path d="M89.0134 37.4983C89.0371 37.5443 89.0663 37.5891 89.0964 37.6313C89.1302 37.6785 89.1506 37.735 89.1853 37.7813C89.2094 37.8134 89.2229 37.855 89.2492 37.8844C89.2732 37.9112 89.2943 37.9546 89.3106 37.9872C89.3251 38.016 89.3408 38.0509 89.3622 38.0748C89.3783 38.0929 89.386 38.122 89.4023 38.1402C89.4216 38.1619 89.4383 38.1852 89.4578 38.2069C89.4711 38.2216 89.4898 38.2478 89.5078 38.2538" stroke="#FFBAF4" stroke-linecap="round"/>
<path d="M114 31H118V41H116C114.895 41 114 40.1046 114 39V31Z" fill="#FFBAF4"/>
<path d="M94 40.5C96.8206 32.0587 104 31 104.5 31" stroke="#FFBAF4"/>
<path d="M96.656 32.7649C96.6874 32.7689 96.6716 32.8843 96.6716 32.9055C96.6716 33.0523 96.644 33.1994 96.5745 33.3306C96.4712 33.5254 96.3903 33.7571 96.25 33.9275C96.1773 34.0157 96.1273 34.1239 96.0591 34.2172C95.9555 34.3593 95.8436 34.518 95.7728 34.6788C95.7362 34.7621 95.6739 34.8497 95.6245 34.9269C95.5623 35.0241 95.5094 35.1268 95.4466 35.2236C95.3373 35.3923 95.1645 35.6126 95.1404 35.8179C95.1318 35.8913 95.0649 35.9843 95.0328 36.0513C95.0069 36.1052 94.956 36.2012 94.9539 36.2595C94.9523 36.3007 94.9507 36.32 94.9313 36.3567C94.8924 36.4301 94.8502 36.5133 94.8064 36.5822C94.7709 36.638 94.8744 36.5382 94.8827 36.5293C94.9259 36.4833 94.9647 36.433 95.0163 36.3957C95.1628 36.29 95.2554 36.1388 95.3911 36.0235C95.6579 35.797 95.8485 35.4794 96.0591 35.2011C96.1873 35.0317 96.3146 34.861 96.4461 34.6944C96.5698 34.5377 96.7314 34.4125 96.859 34.2606C96.9762 34.1213 97.1157 34.0058 97.2477 33.8832C97.2829 33.8506 97.3181 33.8224 97.3518 33.7887C97.3808 33.7597 97.4294 33.7148 97.4681 33.7019" stroke="#FFBAF4" stroke-linecap="round"/>
<path d="M108.842 31.7637C111.452 33.4504 113.536 35.6872 114.5 39" stroke="#FFBAF4"/>
</svg>
