<svg width="191" height="191" viewBox="0 0 191 191" fill="none" xmlns="http://www.w3.org/2000/svg">
<path d="M148.55 179.063H42.4497C40.8032 179.077 39.1699 178.767 37.6439 178.148C36.1178 177.53 34.7291 176.616 33.5576 175.459C32.386 174.301 31.4548 172.924 30.8175 171.406C30.1801 169.888 29.8492 168.258 29.8438 166.612V89.5313L94.7658 71.2669L161.156 89.5313V166.612C161.156 173.452 155.546 179.063 148.55 179.063Z" fill="#FCD53F"/>
<path d="M161.156 34.8993C161.156 14.701 137.013 4.42284 122.562 18.4076L95.5 44.6403L68.4437 18.4076C53.9873 4.35718 29.8438 14.701 29.8438 34.8993C29.8438 42.02 35.5558 47.75 42.6288 47.75L95.5 60.7022L148.371 47.75C151.766 47.7264 155.014 46.3628 157.409 43.9561C159.803 41.5493 161.15 38.2942 161.156 34.8993Z" fill="#F8312F"/>
<path d="M165.108 47.75H25.8865C21.4875 47.75 17.9062 51.3313 17.9062 55.7601V81.5212C17.9062 85.95 21.4875 89.5312 25.8924 89.5312H165.108C169.513 89.5312 173.094 85.95 173.094 81.5212V55.7601C173.094 51.3313 169.513 47.75 165.108 47.75Z" fill="#FFB02E"/>
<path d="M95.5298 17.9062C85.6217 17.9062 77.5938 26.0834 77.5938 36.1706V179.062H113.406V36.1706C113.466 26.0834 105.444 17.9062 95.5298 17.9062Z" fill="#CA0B4A"/>
</svg>
